<svg viewBox="0 0 800 520" xmlns="http://www.w3.org/2000/svg">
  <defs>
    <linearGradient id="g1" x1="0" y1="0" x2="1" y2="1">
      <stop offset="0%" stop-color="#8B5CF6"/>
      <stop offset="50%" stop-color="#38BDF8"/>
      <stop offset="100%" stop-color="#F472B6"/>
    </linearGradient>
    <linearGradient id="bar1" x1="0" y1="0" x2="0" y2="1">
      <stop offset="0%" stop-color="#8B5CF6"/><stop offset="100%" stop-color="#38BDF8"/>
    </linearGradient>
  </defs>
  <rect width="800" height="520" rx="18" fill="#0E0B18"/>
  <!-- browser chrome -->
  <rect width="800" height="40" rx="18" fill="#161221"/>
  <circle cx="24" cy="20" r="5" fill="#FF5F56"/>
  <circle cx="42" cy="20" r="5" fill="#FFBD2E"/>
  <circle cx="60" cy="20" r="5" fill="#27C93F"/>
  <rect x="90" y="11" width="220" height="18" rx="9" fill="#1F1A2E"/>

  <!-- sidebar -->
  <rect x="0" y="40" width="160" height="480" fill="#120E1F"/>
  <rect x="24" y="64" width="112" height="14" rx="4" fill="url(#g1)"/>
  <rect x="24" y="110" width="90" height="10" rx="3" fill="#2A2440"/>
  <rect x="24" y="140" width="100" height="10" rx="3" fill="#3a3158"/>
  <rect x="24" y="170" width="80" height="10" rx="3" fill="#2A2440"/>
  <rect x="24" y="200" width="95" height="10" rx="3" fill="#2A2440"/>
  <rect x="24" y="230" width="70" height="10" rx="3" fill="#2A2440"/>

  <!-- top stat cards -->
  <g>
    <rect x="184" y="60" width="180" height="86" rx="14" fill="#181230" stroke="#2A2440"/>
    <rect x="204" y="80" width="60" height="10" rx="3" fill="#9A95B8"/>
    <rect x="204" y="100" width="90" height="22" rx="4" fill="url(#g1)" opacity="0.85"/>
  </g>
  <g>
    <rect x="380" y="60" width="180" height="86" rx="14" fill="#181230" stroke="#2A2440"/>
    <rect x="400" y="80" width="60" height="10" rx="3" fill="#9A95B8"/>
    <rect x="400" y="100" width="80" height="22" rx="4" fill="#38BDF8" opacity="0.85"/>
  </g>
  <g>
    <rect x="576" y="60" width="184" height="86" rx="14" fill="#181230" stroke="#2A2440"/>
    <rect x="596" y="80" width="60" height="10" rx="3" fill="#9A95B8"/>
    <rect x="596" y="100" width="70" height="22" rx="4" fill="#F472B6" opacity="0.85"/>
  </g>

  <!-- chart card -->
  <rect x="184" y="166" width="372" height="200" rx="14" fill="#181230" stroke="#2A2440"/>
  <rect x="204" y="186" width="140" height="12" rx="3" fill="#9A95B8"/>
  <g opacity="0.9">
    <rect x="220" y="300" width="22" height="40" rx="3" fill="url(#bar1)"/>
    <rect x="256" y="270" width="22" height="70" rx="3" fill="url(#bar1)"/>
    <rect x="292" y="240" width="22" height="100" rx="3" fill="url(#bar1)"/>
    <rect x="328" y="290" width="22" height="50" rx="3" fill="url(#bar1)"/>
    <rect x="364" y="220" width="22" height="120" rx="3" fill="url(#bar1)"/>
    <rect x="400" y="260" width="22" height="80" rx="3" fill="url(#bar1)"/>
    <rect x="436" y="235" width="22" height="105" rx="3" fill="url(#bar1)"/>
    <rect x="472" y="280" width="22" height="60" rx="3" fill="url(#bar1)"/>
    <rect x="508" y="255" width="22" height="85" rx="3" fill="url(#bar1)"/>
  </g>

  <!-- bookings list -->
  <rect x="576" y="166" width="184" height="200" rx="14" fill="#181230" stroke="#2A2440"/>
  <rect x="596" y="186" width="100" height="12" rx="3" fill="#9A95B8"/>
  <g>
    <rect x="596" y="214" width="144" height="34" rx="8" fill="#1F1A33"/>
    <rect x="596" y="256" width="144" height="34" rx="8" fill="#1F1A33"/>
    <rect x="596" y="298" width="144" height="34" rx="8" fill="#1F1A33"/>
    <circle cx="614" cy="231" r="6" fill="#8B5CF6"/>
    <circle cx="614" cy="273" r="6" fill="#38BDF8"/>
    <circle cx="614" cy="315" r="6" fill="#F472B6"/>
  </g>

  <!-- bottom table -->
  <rect x="184" y="384" width="576" height="112" rx="14" fill="#181230" stroke="#2A2440"/>
  <rect x="204" y="404" width="120" height="10" rx="3" fill="#9A95B8"/>
  <rect x="204" y="430" width="536" height="1" fill="#2A2440"/>
  <rect x="204" y="448" width="160" height="10" rx="3" fill="#3a3158"/>
  <rect x="400" y="448" width="100" height="10" rx="3" fill="#2A2440"/>
  <rect x="540" y="448" width="80" height="10" rx="3" fill="#2A2440"/>
  <rect x="204" y="470" width="160" height="10" rx="3" fill="#2A2440"/>
  <rect x="400" y="470" width="100" height="10" rx="3" fill="#2A2440"/>
  <rect x="540" y="470" width="80" height="10" rx="3" fill="#2A2440"/>
</svg>
