<svg viewBox="0 0 800 520" xmlns="http://www.w3.org/2000/svg">
  <defs>
    <linearGradient id="g2" x1="0" y1="0" x2="1" y2="1">
      <stop offset="0%" stop-color="#38BDF8"/>
      <stop offset="100%" stop-color="#8B5CF6"/>
    </linearGradient>
  </defs>
  <rect width="800" height="520" rx="18" fill="#0E0B18"/>
  <rect width="800" height="40" rx="18" fill="#161221"/>
  <circle cx="24" cy="20" r="5" fill="#FF5F56"/>
  <circle cx="42" cy="20" r="5" fill="#FFBD2E"/>
  <circle cx="60" cy="20" r="5" fill="#27C93F"/>
  <rect x="90" y="11" width="220" height="18" rx="9" fill="#1F1A2E"/>

  <rect x="0" y="40" width="160" height="480" fill="#120E1F"/>
  <rect x="24" y="64" width="112" height="14" rx="4" fill="url(#g2)"/>
  <rect x="24" y="140" width="100" height="10" rx="3" fill="#3a3158"/>
  <rect x="24" y="170" width="80" height="10" rx="3" fill="#2A2440"/>
  <rect x="24" y="200" width="95" height="10" rx="3" fill="#2A2440"/>

  <!-- page title -->
  <rect x="184" y="64" width="180" height="16" rx="4" fill="#E6E1FA"/>
  <rect x="640" y="60" width="120" height="34" rx="17" fill="url(#g2)"/>

  <!-- calendar -->
  <rect x="184" y="110" width="576" height="270" rx="14" fill="#181230" stroke="#2A2440"/>
  <g fill="#9A95B8" font-family="sans-serif" font-size="11">
    <rect x="204" y="130" width="64" height="10" rx="3" fill="#6f6a90"/>
    <rect x="276" y="130" width="64" height="10" rx="3" fill="#6f6a90"/>
    <rect x="348" y="130" width="64" height="10" rx="3" fill="#6f6a90"/>
    <rect x="420" y="130" width="64" height="10" rx="3" fill="#6f6a90"/>
    <rect x="492" y="130" width="64" height="10" rx="3" fill="#6f6a90"/>
    <rect x="564" y="130" width="64" height="10" rx="3" fill="#6f6a90"/>
    <rect x="636" y="130" width="64" height="10" rx="3" fill="#6f6a90"/>
  </g>
  <!-- grid cells -->
  <g opacity="0.9">
    <rect x="204" y="156" width="64" height="48" rx="8" fill="#1F1A33"/>
    <rect x="276" y="156" width="64" height="48" rx="8" fill="#1F1A33"/>
    <rect x="348" y="156" width="64" height="48" rx="8" fill="#2d2154"/>
    <rect x="420" y="156" width="64" height="48" rx="8" fill="#1F1A33"/>
    <rect x="492" y="156" width="64" height="48" rx="8" fill="#1F1A33"/>
    <rect x="564" y="156" width="64" height="48" rx="8" fill="#1F1A33"/>
    <rect x="636" y="156" width="64" height="48" rx="8" fill="#1F1A33"/>

    <rect x="204" y="212" width="64" height="48" rx="8" fill="#1F1A33"/>
    <rect x="276" y="212" width="64" height="48" rx="8" fill="#3b2a52"/>
    <rect x="348" y="212" width="64" height="48" rx="8" fill="#3b2a52"/>
    <rect x="420" y="212" width="64" height="48" rx="8" fill="#1F1A33"/>
    <rect x="492" y="212" width="64" height="48" rx="8" fill="#1F1A33"/>
    <rect x="564" y="212" width="64" height="48" rx="8" fill="#1F1A33"/>
    <rect x="636" y="212" width="64" height="48" rx="8" fill="#1F1A33"/>

    <rect x="204" y="268" width="64" height="48" rx="8" fill="#1F1A33"/>
    <rect x="276" y="268" width="64" height="48" rx="8" fill="#1F1A33"/>
    <rect x="348" y="268" width="64" height="48" rx="8" fill="#1F1A33"/>
    <rect x="420" y="268" width="64" height="48" rx="8" fill="#22325a"/>
    <rect x="492" y="268" width="64" height="48" rx="8" fill="#22325a"/>
    <rect x="564" y="268" width="64" height="48" rx="8" fill="#22325a"/>
    <rect x="636" y="268" width="64" height="48" rx="8" fill="#1F1A33"/>
  </g>

  <!-- side booking summary -->
  <rect x="184" y="396" width="280" height="100" rx="14" fill="#181230" stroke="#2A2440"/>
  <rect x="204" y="416" width="120" height="10" rx="3" fill="#9A95B8"/>
  <rect x="204" y="440" width="240" height="10" rx="3" fill="#3a3158"/>
  <rect x="204" y="460" width="180" height="10" rx="3" fill="#2A2440"/>

  <rect x="480" y="396" width="280" height="100" rx="14" fill="url(#g2)" opacity="0.18" stroke="#2A2440"/>
  <rect x="500" y="416" width="130" height="10" rx="3" fill="#cfd0ff"/>
  <rect x="500" y="440" width="220" height="22" rx="6" fill="url(#g2)"/>
</svg>
